HIERARCHY
ROOT Hips
{
	OFFSET 0.00000 0.00000 0.00000
	CHANNELS 6 Xposition Yposition Zposition Zrotation Yrotation Xrotation 
	JOINT LHipJoint
	{
		OFFSET 0 0 0
		CHANNELS 3 Zrotation Yrotation Xrotation
		JOINT LeftHip
		{
			OFFSET 1.76014 -1.80163 0.38499
			CHANNELS 3 Zrotation Yrotation Xrotation
			JOINT LeftKnee
			{
				OFFSET 2.46817 -6.78126 0.00000
				CHANNELS 3 Zrotation Yrotation Xrotation
				JOINT LeftAnkle
				{
					OFFSET 2.79348 -7.67503 0.00000
					CHANNELS 3 Zrotation Yrotation Xrotation
					JOINT LeftToe
					{
						OFFSET 0.09421 -0.25885 1.91403
						CHANNELS 3 Zrotation Yrotation Xrotation
						End Site
						{
							OFFSET 0.00000 -0.00000 0.97975
						}
					}
				}
			}
		}
	}
	JOINT RHipJoint
	{
		OFFSET 0 0 0
		CHANNELS 3 Zrotation Yrotation Xrotation
		JOINT RightHip
		{
			OFFSET -1.77926 -1.80163 0.38499
			CHANNELS 3 Zrotation Yrotation Xrotation
			JOINT RightKnee
			{
				OFFSET -2.51996 -6.92353 0.00000
				CHANNELS 3 Zrotation Yrotation Xrotation
				JOINT RightAnkle
				{
					OFFSET -2.76109 -7.58603 0.00000
					CHANNELS 3 Zrotation Yrotation Xrotation
					JOINT RightToe
					{
						OFFSET -0.08067 -0.22163 1.86812
						CHANNELS 3 Zrotation Yrotation Xrotation
						End Site
						{
							OFFSET -0.00000 -0.00000 0.95558
						}
					}
				}
			}
		}
	}
	JOINT lowerback
	{
		OFFSET 0 0 0
		CHANNELS 3 Zrotation Yrotation Xrotation
		JOINT Chest
		{
			OFFSET 0.05537 1.92033 -0.03713
			CHANNELS 3 Zrotation Yrotation Xrotation
			JOINT Chest2
			{
				OFFSET 0.04452 1.90073 0.10860
				CHANNELS 3 Zrotation Yrotation Xrotation
				JOINT lowerneck
				{
					OFFSET 0 0 0
					CHANNELS 3 Zrotation Yrotation Xrotation
					JOINT Neck
					{
						OFFSET 0.00903 1.74649 0.02074
						CHANNELS 3 Zrotation Yrotation Xrotation
						JOINT Head
						{
							OFFSET -0.08608 1.67844 -0.12081
							CHANNELS 3 Zrotation Yrotation Xrotation
							End Site
							{
								OFFSET -0.03521 1.83380 -0.05059
							}
						}
					}
				}
				JOINT LeftCollar
				{
					OFFSET 0 0 0
					CHANNELS 3 Zrotation Yrotation Xrotation
					JOINT LeftShoulder
					{
						OFFSET 3.28197 0.84325 -0.19106
CHANNELS 3 Zrotation Xrotation Yrotation
						JOINT LeftElbow
						{
OFFSET 0 -5.243180 -0.000000
CHANNELS 3 Zrotation Xrotation Yrotation
							JOINT LeftWrist
							{
OFFSET 0 -2.989990 0.000000
CHANNELS 3 Zrotation Xrotation Yrotation
								JOINT lhand
								{
									OFFSET 0 0 0
CHANNELS 3 Zrotation Xrotation Yrotation
									JOINT LFingers
									{
OFFSET 0 -0.726740 0.000000
CHANNELS 3 Zrotation Xrotation Yrotation
										End Site
										{
OFFSET 0 -0.585920 0.000000
										}
									}
								}
								JOINT LThumb
								{
OFFSET 0 0.000000 0.000000
CHANNELS 3 Zrotation Xrotation Yrotation
									End Site
									{
OFFSET 0 -0.594870 0.594870
									}
								}
							}
						}
					}
				}
				JOINT RightCollar
				{
					OFFSET 0 0 0
					CHANNELS 3 Zrotation Yrotation Xrotation
					JOINT RightShoulder
					{
						OFFSET -3.30963 0.78377 0.14264
CHANNELS 3 Zrotation Xrotation Yrotation
						JOINT RightElbow
						{
OFFSET 0 -5.370450 0.000000
CHANNELS 3 Zrotation Xrotation Yrotation
							JOINT RightWrist
							{
OFFSET 0 -2.927920 0.000000
CHANNELS 3 Zrotation Xrotation Yrotation
								JOINT rhand
								{
									OFFSET 0 0 0
CHANNELS 3 Zrotation Xrotation Yrotation
									JOINT RFingers
									{
OFFSET 0 -0.784500 0.000000
CHANNELS 3 Zrotation Xrotation Yrotation
										End Site
										{
OFFSET 0 -0.632480 0.000000
										}
									}
								}
								JOINT RThumb
								{
OFFSET 0 0.000000 0.000000
CHANNELS 3 Zrotation Xrotation Yrotation
									End Site
									{
OFFSET 0 -0.642140 0.642140
									}
								}
							}
						}
					}
				}
			}
		}
	}
}
MOTION
Frames: 5
Frame Time: 0.008333333333333333
0.825068 16.834231 -0.693394 -1.914064 -8.195047 0.863242 0.000000 0.000000 0.000000 -15.342704 1.269066 -29.659840 7.891621 16.038918 52.171333 1.147972 -0.318664 -20.158394 0.898950 -6.042493 -16.907915 0.000000 0.000000 0.000000 16.875248 4.048639 -31.058249 -6.878844 -15.228993 48.414480 -0.483741 4.394162 -12.373990 -0.282360 3.417621 -9.443578 3.961976 -0.078079 8.859693 1.781896 -0.356955 16.595238 -0.251146 0.119007 13.197527 2.909773 -1.103203 14.486216 -6.160433 -1.619822 -7.970145 -2.261057 -0.474533 -4.827801 0.000000 0.000000 0.000000 38.256168 -71.204874 -35.135517 16.679821 -26.433776 3.943719 6.635193 10.007661 -24.915776 0.000000 0.000000 0.000000 -7.125000 0.000000 0.000000 -23.727764 53.433011 5.148522 0.000000 0.000000 0.000000 -37.470510 -66.880128 23.994460 -18.906248 -29.302000 -4.984904 -4.743090 28.518742 -8.240101 0.000000 0.000000 0.000000 7.125000 0.000000 0.000000 15.903645 21.807361 9.210080
0.834945 16.841316 -0.676491 -2.239660 -8.263163 0.934349 0.000000 0.000000 0.000000 -15.017531 1.352092 -29.681808 7.901435 16.046320 52.206982 1.151679 -0.345496 -20.182582 0.903474 -6.057299 -16.950877 0.000000 0.000000 0.000000 17.223513 4.169785 -30.849471 -6.809172 -15.169072 48.148816 -0.485946 4.269237 -12.403784 -0.268245 3.330255 -9.199854 4.509115 -0.067223 9.529610 1.785069 -0.273533 16.141983 -0.559504 0.210770 12.244208 3.038350 -0.998735 15.381636 -5.853456 -1.417892 -8.344373 -2.205843 -0.382466 -5.077974 0.000000 0.000000 0.000000 37.430198 -70.776199 -35.463273 17.239363 -27.172234 4.196174 7.117842 10.283388 -24.671778 0.000000 0.000000 0.000000 -7.125000 0.000000 0.000000 -23.121504 53.295669 4.925382 0.000000 0.000000 0.000000 -36.643647 -66.524511 23.889204 -19.210890 -29.679858 -5.134825 -5.029325 29.716328 -9.047298 0.000000 0.000000 0.000000 7.125000 0.000000 0.000000 15.623768 21.022386 9.325572
0.849649 16.833365 -0.663738 -2.139826 -8.289112 0.560838 0.000000 0.000000 0.000000 -15.187861 1.416008 -29.245492 7.907910 16.051096 52.230392 1.163819 -0.368439 -20.282554 0.851170 -5.883911 -16.448030 0.000000 0.000000 0.000000 17.060770 4.095142 -30.514367 -6.851868 -15.205867 48.311937 -0.490292 4.331349 -12.458944 -0.263984 3.304896 -9.128801 4.626050 -0.027722 10.385086 1.795198 -0.142450 15.722521 -0.624622 0.270289 11.235659 3.347408 -1.099746 15.846040 -5.957205 -1.489041 -8.289531 -2.283050 -0.413442 -5.142646 0.000000 0.000000 0.000000 35.628541 -69.955450 -36.489310 18.231786 -28.452854 4.659240 6.567767 9.930545 -24.796580 0.000000 0.000000 0.000000 -7.125000 0.000000 0.000000 -23.721115 53.312323 5.074812 0.000000 0.000000 0.000000 -36.279500 -65.576615 23.863724 -19.703814 -30.283785 -5.381194 -4.769582 29.603307 -8.912094 0.000000 0.000000 0.000000 7.125000 0.000000 0.000000 15.818434 21.158326 9.400204
0.862005 16.805535 -0.661515 -2.194941 -8.285878 0.059959 0.000000 0.000000 0.000000 -15.128763 1.630695 -28.942072 8.026584 16.138769 52.658361 1.191942 -0.475776 -20.494427 0.875968 -5.966338 -16.687063 0.000000 0.000000 0.000000 17.072046 3.905305 -30.218991 -6.968772 -15.305550 48.756214 -0.507073 4.448703 -12.671857 -0.283527 3.422620 -9.457899 4.553433 -0.240059 11.298908 1.717395 -0.364251 15.663710 -0.670063 0.146002 10.626118 3.441434 -1.008140 15.071045 -6.041768 -1.353622 -7.822724 -2.332906 -0.361297 -4.866002 0.000000 0.000000 0.000000 36.580988 -68.812704 -34.463659 19.556311 -30.103840 5.307186 7.070938 9.783648 -24.563462 0.000000 0.000000 0.000000 -7.125000 0.000000 0.000000 -23.103147 53.188087 4.858618 0.000000 0.000000 0.000000 -34.817593 -65.851895 24.449865 -20.027541 -30.675497 -5.545409 -4.608074 30.033467 -9.119615 0.000000 0.000000 0.000000 7.125000 0.000000 0.000000 15.911316 20.961401 9.534034
0.873494 16.783398 -0.643421 -1.009871 -8.356350 -0.144927 0.000000 0.000000 0.000000 -16.523167 1.758761 -28.672481 7.955315 16.086294 52.401501 1.200252 -0.415846 -20.585452 0.833535 -5.823927 -16.274466 0.000000 0.000000 0.000000 15.631269 3.797036 -30.664209 -7.225162 -15.518622 49.720984 -0.536902 4.890913 -13.041326 -0.309598 3.577270 -9.890249 3.407823 -0.140860 11.406399 1.420740 -0.233283 15.252307 -0.364837 0.101602 10.051360 3.342785 -1.083718 15.109366 -5.996451 -1.455401 -7.523105 -2.292344 -0.413398 -4.783136 0.000000 0.000000 0.000000 33.764317 -67.701539 -35.480016 20.791291 -31.583767 5.940297 7.477831 10.635019 -25.168310 0.000000 0.000000 0.000000 -7.125000 0.000000 0.000000 -23.070239 53.815588 5.214810 0.000000 0.000000 0.000000 -32.888726 -65.059237 24.824074 -20.598917 -31.357153 -5.839828 -5.243399 33.581916 -9.737020 0.000000 0.000000 0.000000 7.125000 0.000000 0.000000 15.411584 20.350285 9.432687
